<?xml version="1.0" encoding="UTF-8"?>
<svg width="512" height="512" viewBox="0 0 512 512" xmlns="http://www.w3.org/2000/svg">
    <path id="everything" fill="#FF8000" fill-rule="evenodd" stroke="#963800" stroke-width="11" stroke-linejoin="round" d="M 152.285156 304.007202 C 103.859428 226.18576 121.669701 124.399933 193.643188 67.645691 C 265.616669 10.891388 368.749481 17.308228 433.132721 82.546478 C 497.5159 147.78479 502.571625 250.993256 444.872772 322.211731 C 387.17392 393.430237 285.162018 409.896149 207.986176 360.447998 L 92.765404 475.668762 C 77.0756 490.822479 52.135849 490.605774 36.71175 475.181671 C 21.287649 459.757568 21.070929 434.81781 36.224659 419.127991 Z M 304.413361 99.936676 C 244.786896 99.936676 196.450104 148.273468 196.450104 207.899933 C 196.450104 267.526367 244.786896 315.863159 304.413361 315.863159 C 364.039795 315.863159 412.376587 267.526367 412.376587 207.899933 C 412.376587 148.273468 364.039795 99.936676 304.413361 99.936676 Z"/>
</svg>
