<?xml version="1.0" encoding="UTF-8"?> <svg xmlns="http://www.w3.org/2000/svg" width="24" height="24" viewBox="0 0 24 24" fill="none"><g clip-path="url(#clip0_2727_20383)"><path d="M7.25586 16.7012C6.64258 16.998 5.8418 17.1465 4.85352 17.1465C3.56445 17.1465 2.55078 16.7676 1.8125 16.0098C1.07422 15.252 0.705078 14.2422 0.705078 12.9805C0.705078 11.6367 1.11914 10.5469 1.94727 9.71094C2.7793 8.875 3.85742 8.45703 5.18164 8.45703C6.00195 8.45703 6.69336 8.56055 7.25586 8.76758V10.5898C6.69336 10.2539 6.05273 10.0859 5.33398 10.0859C4.54492 10.0859 3.9082 10.334 3.42383 10.8301C2.93945 11.3262 2.69727 11.998 2.69727 12.8457C2.69727 13.6582 2.92578 14.3066 3.38281 14.791C3.83984 15.2715 4.45508 15.5117 5.22852 15.5117C5.9668 15.5117 6.64258 15.332 7.25586 14.9727V16.7012ZM14.8613 14.1582H12.6055V16.4141H11.4219V14.1582H9.1543V12.9688H11.4219V10.7012H12.6055V12.9688H14.8613V14.1582ZM23.3457 14.1582H21.0898V16.4141H19.9062V14.1582H17.6387V12.9688H19.9062V10.7012H21.0898V12.9688H23.3457V14.1582Z" fill="#7252AA"></path></g><defs><clipPath id="clip0_2727_20383"><rect width="24" height="24" fill="white"></rect></clipPath></defs></svg> 